<svg width="17.666748" height="15.583336" viewBox="0 0 17.6667 15.5833" fill="none" xmlns="http://www.w3.org/2000/svg" xmlns:xlink="http://www.w3.org/1999/xlink">
	<desc>
			Created with Pixso.
	</desc>
	<defs/>
	<path id="Rectangle 74" d="M17.1667 10.0833C17.1667 12.8448 14.928 15.0833 12.1667 15.0833L5.5 15.0833C2.73853 15.0833 0.5 12.8448 0.5 10.0833L0.5 6.71371C0.5 4.89281 1.97607 3.41666 3.79712 3.41666C4.32471 3.41666 4.80151 3.10226 5.00928 2.61736L5.16675 2.25C5.62158 1.18835 6.66553 0.5 7.82056 0.5L8.83325 0.5L9.84595 0.5C11.0012 0.5 12.0449 1.18835 12.5 2.25L12.6575 2.61736C12.8652 3.10226 13.342 3.41666 13.8696 3.41666C15.6904 3.41666 17.1667 4.89281 17.1667 6.71371L17.1667 10.0833Z" stroke="#FFFFFF" stroke-opacity="1.000000" stroke-width="1.000000"/>
	<circle id="Ellipse 33" r="2.500000" transform="matrix(-1 1 0 0 8.83301 8.41669)" stroke="#FFFFFF" stroke-opacity="1.000000" stroke-width="1.000000"/>
</svg>
